<svg width="145" height="14" viewBox="0 0 145 14" fill="none" xmlns="http://www.w3.org/2000/svg">
<path d="M8.898 0.699999V10.5H7.498V6.132H1.87V10.5H0.47V0.699999H1.87V4.914H7.498V0.699999H8.898ZM18.6353 3.08V10.5H17.3473V9.324C17.0487 9.73467 16.6707 10.0473 16.2133 10.262C15.756 10.4767 15.252 10.584 14.7013 10.584C13.9827 10.584 13.3387 10.4253 12.7693 10.108C12.2 9.79067 11.752 9.34733 11.4253 8.778C11.108 8.19933 10.9493 7.53667 10.9493 6.79C10.9493 6.04333 11.108 5.38533 11.4253 4.816C11.752 4.24667 12.2 3.80333 12.7693 3.486C13.3387 3.16867 13.9827 3.01 14.7013 3.01C15.2333 3.01 15.7233 3.11267 16.1713 3.318C16.6193 3.514 16.9927 3.808 17.2913 4.2V3.08H18.6353ZM14.8133 9.408C15.28 9.408 15.7047 9.30067 16.0873 9.086C16.47 8.862 16.7687 8.554 16.9833 8.162C17.198 7.76067 17.3053 7.30333 17.3053 6.79C17.3053 6.27667 17.198 5.824 16.9833 5.432C16.7687 5.03067 16.47 4.72267 16.0873 4.508C15.7047 4.29333 15.28 4.186 14.8133 4.186C14.3373 4.186 13.908 4.29333 13.5253 4.508C13.152 4.72267 12.8533 5.03067 12.6293 5.432C12.4147 5.824 12.3073 6.27667 12.3073 6.79C12.3073 7.30333 12.4147 7.76067 12.6293 8.162C12.8533 8.554 13.152 8.862 13.5253 9.086C13.908 9.30067 14.3373 9.408 14.8133 9.408ZM25.1403 3.01C26.083 3.01 26.8296 3.28533 27.3803 3.836C27.9403 4.37733 28.2203 5.17533 28.2203 6.23V10.5H26.8763V6.384C26.8763 5.66533 26.7036 5.124 26.3583 4.76C26.013 4.396 25.5183 4.214 24.8743 4.214C24.1463 4.214 23.5723 4.42867 23.1523 4.858C22.7323 5.278 22.5223 5.88467 22.5223 6.678V10.5H21.1783V3.08H22.4663V4.2C22.737 3.81733 23.101 3.52333 23.5583 3.318C24.025 3.11267 24.5523 3.01 25.1403 3.01ZM37.7486 0.111999V10.5H36.4606V9.324C36.1619 9.73467 35.7839 10.0473 35.3266 10.262C34.8693 10.4767 34.3653 10.584 33.8146 10.584C33.0959 10.584 32.4519 10.4253 31.8826 10.108C31.3133 9.79067 30.8653 9.34733 30.5386 8.778C30.2213 8.19933 30.0626 7.53667 30.0626 6.79C30.0626 6.04333 30.2213 5.38533 30.5386 4.816C30.8653 4.24667 31.3133 3.80333 31.8826 3.486C32.4519 3.16867 33.0959 3.01 33.8146 3.01C34.3466 3.01 34.8366 3.11267 35.2846 3.318C35.7326 3.514 36.1059 3.808 36.4046 4.2V0.111999H37.7486ZM33.9266 9.408C34.3933 9.408 34.8179 9.30067 35.2006 9.086C35.5833 8.862 35.8819 8.554 36.0966 8.162C36.3113 7.76067 36.4186 7.30333 36.4186 6.79C36.4186 6.27667 36.3113 5.824 36.0966 5.432C35.8819 5.03067 35.5833 4.72267 35.2006 4.508C34.8179 4.29333 34.3933 4.186 33.9266 4.186C33.4506 4.186 33.0213 4.29333 32.6386 4.508C32.2653 4.72267 31.9666 5.03067 31.7426 5.432C31.5279 5.824 31.4206 6.27667 31.4206 6.79C31.4206 7.30333 31.5279 7.76067 31.7426 8.162C31.9666 8.554 32.2653 8.862 32.6386 9.086C33.0213 9.30067 33.4506 9.408 33.9266 9.408ZM49.5736 3.01C50.5069 3.01 51.2442 3.28067 51.7856 3.822C52.3362 4.36333 52.6116 5.166 52.6116 6.23V10.5H51.2676V6.384C51.2676 5.66533 51.0996 5.124 50.7636 4.76C50.4369 4.396 49.9656 4.214 49.3496 4.214C48.6682 4.214 48.1269 4.42867 47.7256 4.858C47.3242 5.278 47.1236 5.88467 47.1236 6.678V10.5H45.7796V6.384C45.7796 5.66533 45.6116 5.124 45.2756 4.76C44.9489 4.396 44.4776 4.214 43.8616 4.214C43.1802 4.214 42.6389 4.42867 42.2376 4.858C41.8362 5.278 41.6356 5.88467 41.6356 6.678V10.5H40.2916V3.08H41.5796V4.186C41.8502 3.80333 42.2049 3.514 42.6436 3.318C43.0822 3.11267 43.5816 3.01 44.1416 3.01C44.7202 3.01 45.2336 3.12667 45.6816 3.36C46.1296 3.59333 46.4749 3.934 46.7176 4.382C46.9976 3.95267 47.3849 3.61667 47.8796 3.374C48.3836 3.13133 48.9482 3.01 49.5736 3.01ZM62.1256 3.08V10.5H60.8376V9.324C60.5389 9.73467 60.1609 10.0473 59.7036 10.262C59.2462 10.4767 58.7422 10.584 58.1916 10.584C57.4729 10.584 56.8289 10.4253 56.2596 10.108C55.6902 9.79067 55.2422 9.34733 54.9156 8.778C54.5982 8.19933 54.4396 7.53667 54.4396 6.79C54.4396 6.04333 54.5982 5.38533 54.9156 4.816C55.2422 4.24667 55.6902 3.80333 56.2596 3.486C56.8289 3.16867 57.4729 3.01 58.1916 3.01C58.7236 3.01 59.2136 3.11267 59.6616 3.318C60.1096 3.514 60.4829 3.808 60.7816 4.2V3.08H62.1256ZM58.3036 9.408C58.7702 9.408 59.1949 9.30067 59.5776 9.086C59.9602 8.862 60.2589 8.554 60.4736 8.162C60.6882 7.76067 60.7956 7.30333 60.7956 6.79C60.7956 6.27667 60.6882 5.824 60.4736 5.432C60.2589 5.03067 59.9602 4.72267 59.5776 4.508C59.1949 4.29333 58.7702 4.186 58.3036 4.186C57.8276 4.186 57.3982 4.29333 57.0156 4.508C56.6422 4.72267 56.3436 5.03067 56.1196 5.432C55.9049 5.824 55.7976 6.27667 55.7976 6.79C55.7976 7.30333 55.9049 7.76067 56.1196 8.162C56.3436 8.554 56.6422 8.862 57.0156 9.086C57.3982 9.30067 57.8276 9.408 58.3036 9.408ZM71.6685 0.111999V10.5H70.3805V9.324C70.0819 9.73467 69.7039 10.0473 69.2465 10.262C68.7892 10.4767 68.2852 10.584 67.7345 10.584C67.0159 10.584 66.3719 10.4253 65.8025 10.108C65.2332 9.79067 64.7852 9.34733 64.4585 8.778C64.1412 8.19933 63.9825 7.53667 63.9825 6.79C63.9825 6.04333 64.1412 5.38533 64.4585 4.816C64.7852 4.24667 65.2332 3.80333 65.8025 3.486C66.3719 3.16867 67.0159 3.01 67.7345 3.01C68.2665 3.01 68.7565 3.11267 69.2045 3.318C69.6525 3.514 70.0259 3.808 70.3245 4.2V0.111999H71.6685ZM67.8465 9.408C68.3132 9.408 68.7379 9.30067 69.1205 9.086C69.5032 8.862 69.8019 8.554 70.0165 8.162C70.2312 7.76067 70.3385 7.30333 70.3385 6.79C70.3385 6.27667 70.2312 5.824 70.0165 5.432C69.8019 5.03067 69.5032 4.72267 69.1205 4.508C68.7379 4.29333 68.3132 4.186 67.8465 4.186C67.3705 4.186 66.9412 4.29333 66.5585 4.508C66.1852 4.72267 65.8865 5.03067 65.6625 5.432C65.4479 5.824 65.3405 6.27667 65.3405 6.79C65.3405 7.30333 65.4479 7.76067 65.6625 8.162C65.8865 8.554 66.1852 8.862 66.5585 9.086C66.9412 9.30067 67.3705 9.408 67.8465 9.408ZM77.5575 9.408C78.4442 9.408 79.1582 9.10933 79.6995 8.512L80.4275 9.38C80.1008 9.772 79.6855 10.0707 79.1815 10.276C78.6868 10.4813 78.1315 10.584 77.5155 10.584C76.7315 10.584 76.0362 10.4253 75.4295 10.108C74.8228 9.78133 74.3515 9.32867 74.0155 8.75C73.6888 8.17133 73.5255 7.518 73.5255 6.79C73.5255 6.07133 73.6842 5.42267 74.0015 4.844C74.3282 4.26533 74.7715 3.81733 75.3315 3.5C75.9008 3.17333 76.5402 3.01 77.2495 3.01C77.9215 3.01 78.5328 3.164 79.0835 3.472C79.6342 3.77067 80.0728 4.19533 80.3995 4.746C80.7262 5.29667 80.8942 5.93133 80.9035 6.65L75.0095 7.798C75.1962 8.31133 75.5088 8.708 75.9475 8.988C76.3955 9.268 76.9322 9.408 77.5575 9.408ZM77.2495 4.144C76.7828 4.144 76.3628 4.25133 75.9895 4.466C75.6255 4.68067 75.3408 4.984 75.1355 5.376C74.9302 5.75867 74.8275 6.20667 74.8275 6.72V6.86L79.5735 5.964C79.4522 5.42267 79.1815 4.984 78.7615 4.648C78.3415 4.312 77.8375 4.144 77.2495 4.144ZM90.4775 3.01C91.1962 3.01 91.8402 3.16867 92.4095 3.486C92.9789 3.80333 93.4222 4.24667 93.7395 4.816C94.0662 5.38533 94.2295 6.04333 94.2295 6.79C94.2295 7.53667 94.0662 8.19933 93.7395 8.778C93.4222 9.34733 92.9789 9.79067 92.4095 10.108C91.8402 10.4253 91.1962 10.584 90.4775 10.584C89.9269 10.584 89.4229 10.4767 88.9655 10.262C88.5082 10.0473 88.1302 9.73467 87.8315 9.324V10.5H86.5435V0.111999H87.8875V4.2C88.1862 3.808 88.5595 3.514 89.0075 3.318C89.4555 3.11267 89.9455 3.01 90.4775 3.01ZM90.3655 9.408C90.8415 9.408 91.2662 9.30067 91.6395 9.086C92.0222 8.862 92.3209 8.554 92.5355 8.162C92.7595 7.76067 92.8715 7.30333 92.8715 6.79C92.8715 6.27667 92.7595 5.824 92.5355 5.432C92.3209 5.03067 92.0222 4.72267 91.6395 4.508C91.2662 4.29333 90.8415 4.186 90.3655 4.186C89.8989 4.186 89.4742 4.29333 89.0915 4.508C88.7089 4.72267 88.4102 5.03067 88.1955 5.432C87.9809 5.824 87.8735 6.27667 87.8735 6.79C87.8735 7.30333 87.9809 7.76067 88.1955 8.162C88.4102 8.554 88.7089 8.862 89.0915 9.086C89.4742 9.30067 89.8989 9.408 90.3655 9.408ZM103.003 3.08V9.492C103.003 10.7893 102.699 11.746 102.093 12.362C101.486 12.9873 100.576 13.3 99.3625 13.3C98.6998 13.3 98.0652 13.202 97.4585 13.006C96.8612 12.8193 96.3712 12.5487 95.9885 12.194L96.6465 11.158C96.9732 11.4567 97.3652 11.69 97.8225 11.858C98.2892 12.026 98.7792 12.11 99.2925 12.11C100.105 12.11 100.702 11.9047 101.085 11.494C101.467 11.0927 101.659 10.472 101.659 9.632V9.086C101.388 9.44067 101.038 9.716 100.609 9.912C100.179 10.0987 99.7125 10.192 99.2085 10.192C98.2192 10.192 97.4398 9.92133 96.8705 9.38C96.3012 8.83867 96.0165 8.036 96.0165 6.972V3.08H97.3605V6.818C97.3605 7.52733 97.5332 8.06867 97.8785 8.442C98.2238 8.806 98.7185 8.988 99.3625 8.988C100.072 8.988 100.632 8.77333 101.043 8.344C101.453 7.91467 101.659 7.308 101.659 6.524V3.08H103.003ZM113.339 0.699999C114.608 0.699999 115.607 1.00333 116.335 1.61C117.063 2.21667 117.427 3.052 117.427 4.116C117.427 5.18 117.063 6.01533 116.335 6.622C115.607 7.22867 114.608 7.532 113.339 7.532H110.917V10.5H109.517V0.699999H113.339ZM113.297 6.314C114.184 6.314 114.86 6.12733 115.327 5.754C115.794 5.37133 116.027 4.82533 116.027 4.116C116.027 3.40667 115.794 2.86533 115.327 2.492C114.86 2.10933 114.184 1.918 113.297 1.918H110.917V6.314H113.297ZM122.438 10.584C121.701 10.584 121.038 10.4207 120.45 10.094C119.862 9.76733 119.4 9.31933 119.064 8.75C118.738 8.17133 118.574 7.518 118.574 6.79C118.574 6.062 118.738 5.41333 119.064 4.844C119.4 4.26533 119.862 3.81733 120.45 3.5C121.038 3.17333 121.701 3.01 122.438 3.01C123.176 3.01 123.834 3.17333 124.412 3.5C125 3.81733 125.458 4.26533 125.784 4.844C126.12 5.41333 126.288 6.062 126.288 6.79C126.288 7.518 126.12 8.17133 125.784 8.75C125.458 9.31933 125 9.76733 124.412 10.094C123.834 10.4207 123.176 10.584 122.438 10.584ZM122.438 9.408C122.914 9.408 123.339 9.30067 123.712 9.086C124.095 8.862 124.394 8.554 124.608 8.162C124.823 7.76067 124.93 7.30333 124.93 6.79C124.93 6.27667 124.823 5.824 124.608 5.432C124.394 5.03067 124.095 4.72267 123.712 4.508C123.339 4.29333 122.914 4.186 122.438 4.186C121.962 4.186 121.533 4.29333 121.15 4.508C120.777 4.72267 120.478 5.03067 120.254 5.432C120.04 5.824 119.932 6.27667 119.932 6.79C119.932 7.30333 120.04 7.76067 120.254 8.162C120.478 8.554 120.777 8.862 121.15 9.086C121.533 9.30067 121.962 9.408 122.438 9.408ZM130.401 10.584C129.682 10.584 129.127 10.388 128.735 9.996C128.343 9.59467 128.147 9.03467 128.147 8.316V0.111999H129.491V8.204C129.491 8.60533 129.584 8.91333 129.771 9.128C129.967 9.34267 130.256 9.45 130.639 9.45C130.872 9.45 131.092 9.40333 131.297 9.31L131.367 10.416C131.059 10.528 130.737 10.584 130.401 10.584ZM134.899 10.584C134.18 10.584 133.625 10.388 133.233 9.996C132.841 9.59467 132.645 9.03467 132.645 8.316V0.111999H133.989V8.204C133.989 8.60533 134.082 8.91333 134.269 9.128C134.465 9.34267 134.754 9.45 135.137 9.45C135.37 9.45 135.59 9.40333 135.795 9.31L135.865 10.416C135.557 10.528 135.235 10.584 134.899 10.584ZM144.059 3.08V9.492C144.059 10.7893 143.756 11.746 143.149 12.362C142.542 12.9873 141.632 13.3 140.419 13.3C139.756 13.3 139.122 13.202 138.515 13.006C137.918 12.8193 137.428 12.5487 137.045 12.194L137.703 11.158C138.03 11.4567 138.422 11.69 138.879 11.858C139.346 12.026 139.836 12.11 140.349 12.11C141.161 12.11 141.758 11.9047 142.141 11.494C142.524 11.0927 142.715 10.472 142.715 9.632V9.086C142.444 9.44067 142.094 9.716 141.665 9.912C141.236 10.0987 140.769 10.192 140.265 10.192C139.276 10.192 138.496 9.92133 137.927 9.38C137.358 8.83867 137.073 8.036 137.073 6.972V3.08H138.417V6.818C138.417 7.52733 138.59 8.06867 138.935 8.442C139.28 8.806 139.775 8.988 140.419 8.988C141.128 8.988 141.688 8.77333 142.099 8.344C142.51 7.91467 142.715 7.308 142.715 6.524V3.08H144.059Z" fill="black"/>
</svg>
