<svg width="247" height="23" viewBox="0 0 247 23" fill="none" xmlns="http://www.w3.org/2000/svg">
<path d="M14.968 1.2V18H12.568V10.512H2.92V18H0.52V1.2H2.92V8.424H12.568V1.2H14.968ZM31.6606 5.28V18H29.4526V15.984C28.9406 16.688 28.2926 17.224 27.5086 17.592C26.7246 17.96 25.8606 18.144 24.9166 18.144C23.6846 18.144 22.5806 17.872 21.6046 17.328C20.6286 16.784 19.8606 16.024 19.3006 15.048C18.7566 14.056 18.4846 12.92 18.4846 11.64C18.4846 10.36 18.7566 9.232 19.3006 8.256C19.8606 7.28 20.6286 6.52 21.6046 5.976C22.5806 5.432 23.6846 5.16 24.9166 5.16C25.8286 5.16 26.6686 5.336 27.4366 5.688C28.2046 6.024 28.8446 6.528 29.3566 7.2V5.28H31.6606ZM25.1086 16.128C25.9086 16.128 26.6366 15.944 27.2926 15.576C27.9486 15.192 28.4606 14.664 28.8286 13.992C29.1966 13.304 29.3806 12.52 29.3806 11.64C29.3806 10.76 29.1966 9.984 28.8286 9.312C28.4606 8.624 27.9486 8.096 27.2926 7.728C26.6366 7.36 25.9086 7.176 25.1086 7.176C24.2926 7.176 23.5566 7.36 22.9006 7.728C22.2606 8.096 21.7486 8.624 21.3646 9.312C20.9966 9.984 20.8126 10.76 20.8126 11.64C20.8126 12.52 20.9966 13.304 21.3646 13.992C21.7486 14.664 22.2606 15.192 22.9006 15.576C23.5566 15.944 24.2926 16.128 25.1086 16.128ZM42.8119 5.16C44.4279 5.16 45.7079 5.632 46.6519 6.576C47.6119 7.504 48.0919 8.872 48.0919 10.68V18H45.7879V10.944C45.7879 9.712 45.4919 8.784 44.8999 8.16C44.3079 7.536 43.4599 7.224 42.3559 7.224C41.1079 7.224 40.1239 7.592 39.4039 8.328C38.6839 9.048 38.3239 10.088 38.3239 11.448V18H36.0199V5.28H38.2279V7.2C38.6919 6.544 39.3159 6.04 40.0999 5.688C40.8999 5.336 41.8039 5.16 42.8119 5.16ZM64.4262 0.191999V18H62.2182V15.984C61.7062 16.688 61.0582 17.224 60.2742 17.592C59.4902 17.96 58.6262 18.144 57.6822 18.144C56.4502 18.144 55.3462 17.872 54.3702 17.328C53.3942 16.784 52.6262 16.024 52.0662 15.048C51.5222 14.056 51.2502 12.92 51.2502 11.64C51.2502 10.36 51.5222 9.232 52.0662 8.256C52.6262 7.28 53.3942 6.52 54.3702 5.976C55.3462 5.432 56.4502 5.16 57.6822 5.16C58.5942 5.16 59.4342 5.336 60.2022 5.688C60.9702 6.024 61.6102 6.528 62.1222 7.2V0.191999H64.4262ZM57.8742 16.128C58.6742 16.128 59.4022 15.944 60.0582 15.576C60.7142 15.192 61.2262 14.664 61.5942 13.992C61.9622 13.304 62.1462 12.52 62.1462 11.64C62.1462 10.76 61.9622 9.984 61.5942 9.312C61.2262 8.624 60.7142 8.096 60.0582 7.728C59.4022 7.36 58.6742 7.176 57.8742 7.176C57.0582 7.176 56.3222 7.36 55.6662 7.728C55.0262 8.096 54.5142 8.624 54.1302 9.312C53.7622 9.984 53.5782 10.76 53.5782 11.64C53.5782 12.52 53.7622 13.304 54.1302 13.992C54.5142 14.664 55.0262 15.192 55.6662 15.576C56.3222 15.944 57.0582 16.128 57.8742 16.128ZM84.6976 5.16C86.2976 5.16 87.5616 5.624 88.4896 6.552C89.4336 7.48 89.9056 8.856 89.9056 10.68V18H87.6016V10.944C87.6016 9.712 87.3136 8.784 86.7376 8.16C86.1776 7.536 85.3696 7.224 84.3136 7.224C83.1456 7.224 82.2176 7.592 81.5296 8.328C80.8416 9.048 80.4976 10.088 80.4976 11.448V18H78.1936V10.944C78.1936 9.712 77.9056 8.784 77.3296 8.16C76.7696 7.536 75.9616 7.224 74.9056 7.224C73.7376 7.224 72.8096 7.592 72.1216 8.328C71.4336 9.048 71.0896 10.088 71.0896 11.448V18H68.7856V5.28H70.9936V7.176C71.4576 6.52 72.0656 6.024 72.8176 5.688C73.5696 5.336 74.4256 5.16 75.3856 5.16C76.3776 5.16 77.2576 5.36 78.0256 5.76C78.7936 6.16 79.3856 6.744 79.8016 7.512C80.2816 6.776 80.9456 6.2 81.7936 5.784C82.6576 5.368 83.6256 5.16 84.6976 5.16ZM106.215 5.28V18H104.007V15.984C103.495 16.688 102.847 17.224 102.063 17.592C101.279 17.96 100.415 18.144 99.4713 18.144C98.2393 18.144 97.1353 17.872 96.1593 17.328C95.1833 16.784 94.4153 16.024 93.8553 15.048C93.3113 14.056 93.0393 12.92 93.0393 11.64C93.0393 10.36 93.3113 9.232 93.8553 8.256C94.4153 7.28 95.1833 6.52 96.1593 5.976C97.1353 5.432 98.2393 5.16 99.4713 5.16C100.383 5.16 101.223 5.336 101.991 5.688C102.759 6.024 103.399 6.528 103.911 7.2V5.28H106.215ZM99.6633 16.128C100.463 16.128 101.191 15.944 101.847 15.576C102.503 15.192 103.015 14.664 103.383 13.992C103.751 13.304 103.935 12.52 103.935 11.64C103.935 10.76 103.751 9.984 103.383 9.312C103.015 8.624 102.503 8.096 101.847 7.728C101.191 7.36 100.463 7.176 99.6633 7.176C98.8473 7.176 98.1113 7.36 97.4553 7.728C96.8153 8.096 96.3033 8.624 95.9193 9.312C95.5513 9.984 95.3673 10.76 95.3673 11.64C95.3673 12.52 95.5513 13.304 95.9193 13.992C96.3033 14.664 96.8153 15.192 97.4553 15.576C98.1113 15.944 98.8473 16.128 99.6633 16.128ZM122.575 0.191999V18H120.367V15.984C119.855 16.688 119.207 17.224 118.423 17.592C117.639 17.96 116.775 18.144 115.831 18.144C114.599 18.144 113.495 17.872 112.519 17.328C111.543 16.784 110.775 16.024 110.215 15.048C109.671 14.056 109.399 12.92 109.399 11.64C109.399 10.36 109.671 9.232 110.215 8.256C110.775 7.28 111.543 6.52 112.519 5.976C113.495 5.432 114.599 5.16 115.831 5.16C116.743 5.16 117.583 5.336 118.351 5.688C119.119 6.024 119.759 6.528 120.271 7.2V0.191999H122.575ZM116.023 16.128C116.823 16.128 117.551 15.944 118.207 15.576C118.863 15.192 119.375 14.664 119.743 13.992C120.111 13.304 120.295 12.52 120.295 11.64C120.295 10.76 120.111 9.984 119.743 9.312C119.375 8.624 118.863 8.096 118.207 7.728C117.551 7.36 116.823 7.176 116.023 7.176C115.207 7.176 114.471 7.36 113.815 7.728C113.175 8.096 112.663 8.624 112.279 9.312C111.911 9.984 111.727 10.76 111.727 11.64C111.727 12.52 111.911 13.304 112.279 13.992C112.663 14.664 113.175 15.192 113.815 15.576C114.471 15.944 115.207 16.128 116.023 16.128ZM132.67 16.128C134.19 16.128 135.414 15.616 136.342 14.592L137.59 16.08C137.03 16.752 136.318 17.264 135.454 17.616C134.606 17.968 133.654 18.144 132.598 18.144C131.254 18.144 130.062 17.872 129.022 17.328C127.982 16.768 127.174 15.992 126.598 15C126.038 14.008 125.758 12.888 125.758 11.64C125.758 10.408 126.03 9.296 126.574 8.304C127.134 7.312 127.894 6.544 128.854 6C129.83 5.44 130.926 5.16 132.142 5.16C133.294 5.16 134.342 5.424 135.286 5.952C136.23 6.464 136.982 7.192 137.542 8.136C138.102 9.08 138.39 10.168 138.406 11.4L128.302 13.368C128.622 14.248 129.158 14.928 129.91 15.408C130.678 15.888 131.598 16.128 132.67 16.128ZM132.142 7.104C131.342 7.104 130.622 7.288 129.982 7.656C129.358 8.024 128.87 8.544 128.518 9.216C128.166 9.872 127.99 10.64 127.99 11.52V11.76L136.126 10.224C135.918 9.296 135.454 8.544 134.734 7.968C134.014 7.392 133.15 7.104 132.142 7.104ZM154.819 5.16C156.051 5.16 157.155 5.432 158.131 5.976C159.107 6.52 159.867 7.28 160.411 8.256C160.971 9.232 161.251 10.36 161.251 11.64C161.251 12.92 160.971 14.056 160.411 15.048C159.867 16.024 159.107 16.784 158.131 17.328C157.155 17.872 156.051 18.144 154.819 18.144C153.875 18.144 153.011 17.96 152.227 17.592C151.443 17.224 150.795 16.688 150.283 15.984V18H148.075V0.191999H150.379V7.2C150.891 6.528 151.531 6.024 152.299 5.688C153.067 5.336 153.907 5.16 154.819 5.16ZM154.627 16.128C155.443 16.128 156.171 15.944 156.811 15.576C157.467 15.192 157.979 14.664 158.347 13.992C158.731 13.304 158.923 12.52 158.923 11.64C158.923 10.76 158.731 9.984 158.347 9.312C157.979 8.624 157.467 8.096 156.811 7.728C156.171 7.36 155.443 7.176 154.627 7.176C153.827 7.176 153.099 7.36 152.443 7.728C151.787 8.096 151.275 8.624 150.907 9.312C150.539 9.984 150.355 10.76 150.355 11.64C150.355 12.52 150.539 13.304 150.907 13.992C151.275 14.664 151.787 15.192 152.443 15.576C153.099 15.944 153.827 16.128 154.627 16.128ZM176.29 5.28V16.272C176.29 18.496 175.77 20.136 174.73 21.192C173.69 22.264 172.13 22.8 170.05 22.8C168.914 22.8 167.826 22.632 166.786 22.296C165.762 21.976 164.922 21.512 164.266 20.904L165.394 19.128C165.954 19.64 166.626 20.04 167.41 20.328C168.21 20.616 169.05 20.76 169.93 20.76C171.322 20.76 172.346 20.408 173.002 19.704C173.658 19.016 173.986 17.952 173.986 16.512V15.576C173.522 16.184 172.922 16.656 172.186 16.992C171.45 17.312 170.65 17.472 169.786 17.472C168.09 17.472 166.754 17.008 165.778 16.08C164.802 15.152 164.314 13.776 164.314 11.952V5.28H166.618V11.688C166.618 12.904 166.914 13.832 167.506 14.472C168.098 15.096 168.946 15.408 170.05 15.408C171.266 15.408 172.226 15.04 172.93 14.304C173.634 13.568 173.986 12.528 173.986 11.184V5.28H176.29ZM194.01 1.2C196.186 1.2 197.898 1.72 199.146 2.76C200.394 3.8 201.018 5.232 201.018 7.056C201.018 8.88 200.394 10.312 199.146 11.352C197.898 12.392 196.186 12.912 194.01 12.912H189.858V18H187.458V1.2H194.01ZM193.938 10.824C195.458 10.824 196.618 10.504 197.418 9.864C198.218 9.208 198.618 8.272 198.618 7.056C198.618 5.84 198.218 4.912 197.418 4.272C196.618 3.616 195.458 3.288 193.938 3.288H189.858V10.824H193.938ZM209.609 18.144C208.345 18.144 207.209 17.864 206.201 17.304C205.193 16.744 204.401 15.976 203.825 15C203.265 14.008 202.985 12.888 202.985 11.64C202.985 10.392 203.265 9.28 203.825 8.304C204.401 7.312 205.193 6.544 206.201 6C207.209 5.44 208.345 5.16 209.609 5.16C210.873 5.16 212.001 5.44 212.993 6C214.001 6.544 214.785 7.312 215.345 8.304C215.921 9.28 216.209 10.392 216.209 11.64C216.209 12.888 215.921 14.008 215.345 15C214.785 15.976 214.001 16.744 212.993 17.304C212.001 17.864 210.873 18.144 209.609 18.144ZM209.609 16.128C210.425 16.128 211.153 15.944 211.793 15.576C212.449 15.192 212.961 14.664 213.329 13.992C213.697 13.304 213.881 12.52 213.881 11.64C213.881 10.76 213.697 9.984 213.329 9.312C212.961 8.624 212.449 8.096 211.793 7.728C211.153 7.36 210.425 7.176 209.609 7.176C208.793 7.176 208.057 7.36 207.401 7.728C206.761 8.096 206.249 8.624 205.865 9.312C205.497 9.984 205.313 10.76 205.313 11.64C205.313 12.52 205.497 13.304 205.865 13.992C206.249 14.664 206.761 15.192 207.401 15.576C208.057 15.944 208.793 16.128 209.609 16.128ZM223.259 18.144C222.027 18.144 221.075 17.808 220.403 17.136C219.731 16.448 219.395 15.488 219.395 14.256V0.191999H221.699V14.064C221.699 14.752 221.859 15.28 222.179 15.648C222.515 16.016 223.011 16.2 223.667 16.2C224.067 16.2 224.443 16.12 224.795 15.96L224.915 17.856C224.387 18.048 223.835 18.144 223.259 18.144ZM230.97 18.144C229.738 18.144 228.786 17.808 228.114 17.136C227.442 16.448 227.106 15.488 227.106 14.256V0.191999H229.41V14.064C229.41 14.752 229.57 15.28 229.89 15.648C230.226 16.016 230.722 16.2 231.378 16.2C231.778 16.2 232.154 16.12 232.506 15.96L232.626 17.856C232.098 18.048 231.546 18.144 230.97 18.144ZM246.673 5.28V16.272C246.673 18.496 246.153 20.136 245.113 21.192C244.073 22.264 242.513 22.8 240.433 22.8C239.297 22.8 238.209 22.632 237.169 22.296C236.145 21.976 235.305 21.512 234.649 20.904L235.777 19.128C236.337 19.64 237.009 20.04 237.793 20.328C238.593 20.616 239.433 20.76 240.313 20.76C241.705 20.76 242.729 20.408 243.385 19.704C244.041 19.016 244.369 17.952 244.369 16.512V15.576C243.905 16.184 243.305 16.656 242.569 16.992C241.833 17.312 241.033 17.472 240.169 17.472C238.473 17.472 237.137 17.008 236.161 16.08C235.185 15.152 234.697 13.776 234.697 11.952V5.28H237.001V11.688C237.001 12.904 237.297 13.832 237.889 14.472C238.481 15.096 239.329 15.408 240.433 15.408C241.649 15.408 242.609 15.04 243.313 14.304C244.017 13.568 244.369 12.528 244.369 11.184V5.28H246.673Z" fill="black"/>
</svg>
