<svg width="14" height="12" viewBox="0 0 14 12" fill="none" xmlns="http://www.w3.org/2000/svg">
<path d="M1.16666 0.375C0.821479 0.375 0.541656 0.654822 0.541656 1C0.541656 1.34518 0.821479 1.625 1.16666 1.625H12.8333C13.1785 1.625 13.4583 1.34518 13.4583 1C13.4583 0.654822 13.1785 0.375 12.8333 0.375H1.16666Z" fill="black"/>
<path d="M1.16666 5.375C0.821479 5.375 0.541656 5.65482 0.541656 6C0.541656 6.34518 0.821479 6.625 1.16666 6.625H12.8333C13.1785 6.625 13.4583 6.34518 13.4583 6C13.4583 5.65482 13.1785 5.375 12.8333 5.375H1.16666Z" fill="black"/>
<path d="M1.16666 10.375C0.821479 10.375 0.541656 10.6548 0.541656 11C0.541656 11.3452 0.821479 11.625 1.16666 11.625H12.8333C13.1785 11.625 13.4583 11.3452 13.4583 11C13.4583 10.6548 13.1785 10.375 12.8333 10.375H1.16666Z" fill="black"/>
</svg>
